<svg fill="none" height="2500" viewBox="204.925 153.577 757.617 860.543" width="2500" xmlns="http://www.w3.org/2000/svg"><path d="M692.731 644.884c-21.472 38.044-62.317 63.952-109.231 63.952-46.68 0-87.291-25.441-108.764-63.252-10.503-18.438-16.572-39.444-16.572-62.084 0-69.32 56.016-125.336 125.336-125.336 46.213 0 86.592 25.207 108.298 62.551l109.464-63.018c-43.645-75.154-124.869-125.802-217.995-125.802-139.107 0-251.605 112.732-251.605 251.605 0 45.513 12.136 88.459 33.376 125.336C408.45 784.224 490.14 835.105 583.5 835.105c93.594 0 175.284-51.114 218.696-126.969zm138.406-120.901h-24.974v120.668h24.974zm55.316 0h-24.974v120.668h24.974z"/><path d="M906.759 544.289H786.091v24.974h120.668zm0 55.082H786.091v24.974h120.668z"/></svg>